<?xml version="1.0" encoding="utf-8"?>
<!-- Generator: Adobe Illustrator 24.2.0, SVG Export Plug-In . SVG Version: 6.00 Build 0)  -->
<svg version="1.1" id="Capa_1" xmlns="http://www.w3.org/2000/svg" xmlns:xlink="http://www.w3.org/1999/xlink" x="0px" y="0px"
	 viewBox="0 0 207 207" style="enable-background:new 0 0 207 207;" xml:space="preserve">
<style type="text/css">
	.st0{fill:#FFFFFF;}
</style>
<g>
	<path class="st0" d="M72.3,201.3c-5.2,0-10.6-2.6-16.2-7.7c-4.2-3.7-9.1-9.2-14.6-16.4c-6.6-9.1-11.7-18.9-15.3-29.3
		c-4.3-12.3-6.5-23.8-6.5-34.5c0-12.6,2.9-23.5,8.7-32.8C33,73,39.1,67.2,46.5,62.9c7.5-4.2,15.5-6.4,24.3-6.4
		c5.6,0,13.3,1.8,23,5.3c5.2,1.9,8.9,2.8,11,2.8c2.5,0,8.1-1.6,16.8-4.9c6.9-2.6,13.3-3.9,19-3.9c1.2,0,2.5,0,3.8,0.1
		c1.3,0.1,3.5,0.3,6.5,0.7c3.1,0.4,6.3,1.3,9.8,2.7c3.5,1.4,7.1,3.3,10.9,5.7c3.8,2.4,7.1,5.7,10,9.9c-0.7,0-2.8,1.3-6.2,4
		c-10.6,9.2-15.9,20.1-15.9,32.7c0,11.8,4.6,21.8,13.8,29.9c3.8,3.5,8.3,6.3,13.5,8.4c0,0.9-1.1,3.8-3.2,8.9
		c-2.5,6.2-6,12.5-10.7,18.6c-5.1,7-9.7,12.3-13.8,15.9c-5.9,5.1-11.9,7.7-17.9,7.7c-4.7,0-10.1-1.3-16.1-3.9
		c-6.1-2.6-11.9-3.9-17.4-3.9c-4.1,0-7.6,0.4-10.4,1.3c-2.8,0.8-5.4,1.7-7.9,2.6c-2.5,0.9-4.9,1.8-7.3,2.7c-2.4,0.9-5.2,1.5-8.4,1.6
		H72.3z M103.4,53.8c-0.2-1.5-0.4-3-0.4-4.6c0-8.7,3.7-17.1,11.2-25.2c8.7-9,18.6-13.7,29.7-14.2l0.4,3.7c0,9.6-3.5,18.4-10.6,26.5
		c-3.7,4.1-8.1,7.4-13.4,10c-5.3,2.6-10.5,3.9-15.7,3.9H103.4z"/>
</g>
</svg>
