<?xml version="1.0" encoding="utf-8"?>
<!-- Generator: Adobe Illustrator 24.2.0, SVG Export Plug-In . SVG Version: 6.00 Build 0)  -->
<svg version="1.1" id="Capa_1" xmlns="http://www.w3.org/2000/svg" xmlns:xlink="http://www.w3.org/1999/xlink" x="0px" y="0px"
	 viewBox="0 0 772.45 512.94" style="enable-background:new 0 0 772.45 512.94;" xml:space="preserve">
<style type="text/css">
	.st0{fill:#FFFFFF;}
</style>
<g id="Capa_3">
	<path class="st0" d="M255.92,109.7l54.81-54.81l201.43,201.43l-54.81,54.81L255.92,109.7z M256.19,0.33l-105.5,105.5l54.55,54.55
		l105.5-105.5L256.19,0.33z"/>
	
		<rect x="267.39" y="196.23" transform="matrix(0.7071 -0.7071 0.7071 0.7071 -126.8814 306.1732)" class="st0" width="77.5" height="220.03"/>
	<path class="st0" d="M54.63,310.99l54.81-54.81l201.5,201.5l-54.81,54.81L54.63,310.99z M105.04,151.48L0.08,256.44l54.55,54.55
		L159.6,206.03L105.04,151.48z"/>
</g>
<g id="Capa_4">
	<path class="st0" d="M772.45,152.93H578.29v-78.3h194.16V152.93z M578.3,437.11h78.3V152.93h-78.3V437.11z"/>
	<rect x="461.73" y="75.33" class="st0" width="90.79" height="77.6"/>
</g>
</svg>
