<?xml version="1.0" encoding="utf-8"?>
<!-- Generator: Adobe Illustrator 24.0.2, SVG Export Plug-In . SVG Version: 6.00 Build 0)  -->
<svg version="1.1" id="Capa_1" xmlns="http://www.w3.org/2000/svg" xmlns:xlink="http://www.w3.org/1999/xlink" x="0px" y="0px"
	 viewBox="0 0 465.84 130.08" style="enable-background:new 0 0 465.84 130.08;" xml:space="preserve">
<style type="text/css">
	.st0{fill:#0E6938;}
	.st1{fill:#77B82A;}
</style>
<g>
	<path class="st0" d="M339.82,122.67c1.05-3.68,2.38-7.26,3.63-10.87c4.54-13.14,9.16-26.24,14.4-39.12
		c0.35-0.85,0.6-1.75,1.07-2.53c0.58-0.97,0.23-1.42-0.59-1.98c-7.01-4.8-14-9.65-21-14.48c-1.57-1.08-3.14-2.14-4.92-3.36
		c2.97-1.1,5.71-2.14,8.48-3.12c11.25-3.99,22.71-7.23,34.34-9.89c0.73-0.17,1.24-0.47,1.67-1.15c7.24-11.21,15.05-22,23.84-32.06
		c0.34-0.39,0.68-0.77,1.13-1.28c0.23,0.54,0.43,0.98,0.61,1.43c3.11,7.89,6.22,15.78,9.34,23.66c0.26,0.67,0.38,1.15-0.24,1.78
		c-15.76,16.14-30.24,33.36-43.63,51.51c-9.74,13.2-18.87,26.81-27.44,40.8c-0.17,0.27-0.35,0.53-0.53,0.79
		C339.94,122.77,339.88,122.72,339.82,122.67z"/>
	<path class="st1" d="M353.93,107.44c2.03-2.85,4.05-5.71,6.11-8.54c13.36-18.35,27.69-35.92,43.2-52.51
		c4.56-4.87,9.23-9.63,13.96-14.33c0.45-0.45,0.91-0.67,1.56-0.71c13.61-0.81,27.23-0.83,40.85-0.57c1.67,0.03,3.34,0,5.07,0.2
		c-39.77,21.41-76.42,47.2-110.51,76.7C354.09,107.6,354.01,107.52,353.93,107.44z"/>
	<path class="st0" d="M438.46,118.81c-17.1-10.94-34.13-21.55-51.42-31.93c11.84-8.79,23.87-17.12,36.25-25.11
		C428.34,80.76,433.36,99.64,438.46,118.81z"/>
	<path class="st0" d="M168.11,51.08c3.54,0,6.88,0,10.29,0c-1,4.7-1.97,9.33-2.97,14.02c0.53-0.09,0.64-0.48,0.86-0.73
		c2.76-3.03,6.22-3.9,10.13-3.11c2.88,0.58,4.24,2.63,4.73,5.37c0.58,3.25,0.07,6.45-0.49,9.63c-0.82,4.64-1.86,9.23-4.07,13.44
		c-1.86,3.53-4.41,6.26-8.55,7.02c-1.35,0.25-2.72,0.28-4.06,0.04c-2.44-0.44-3.98-1.9-4.52-4.49c-0.46,0.49-0.36,1.08-0.52,1.56
		c-0.16,0.49-0.25,1.01-0.32,1.52c-0.06,0.45-0.19,0.74-0.73,0.73c-3.07-0.01-6.14-0.01-9.34-0.01
		C161.75,80.99,164.92,66.04,168.11,51.08z M171.31,85.75c0,0.4-0.05,0.8,0.01,1.2c0.32,2.31,2.16,3.17,4.2,1.97
		c0.71-0.42,1.24-1.01,1.66-1.7c0.53-0.85,0.93-1.76,1.24-2.71c0.99-3.08,1.61-6.25,2.18-9.42c0.26-1.45,0.49-2.91,0.24-4.4
		c-0.24-1.45-1.07-2.16-2.54-2.18c-2.11-0.02-3.17,1.41-3.87,3.07C172.55,76.1,171.78,80.9,171.31,85.75z"/>
	<path class="st0" d="M111.99,92.52c-1.59,2-3.4,3.69-6.04,4.16c-1.79,0.32-3.58,0.35-5.33-0.2c-2.3-0.72-3.63-2.39-4.23-4.65
		c-0.84-3.16-0.55-6.34-0.01-9.5c0.87-5.07,1.92-10.11,4.31-14.74c1.62-3.13,3.88-5.54,7.5-6.34c1.54-0.34,3.1-0.38,4.64-0.08
		c2.3,0.46,3.86,1.81,4.73,4.11c1.01-4.73,2.02-9.46,3.04-14.22c3.44,0,6.82,0,10.29,0c-3.2,15.03-6.38,29.99-9.56,44.96
		c-3.31,0-6.53,0-9.79,0c-0.12-1.24,0.68-2.32,0.43-3.53C111.98,92.51,111.99,92.52,111.99,92.52z M115.86,72.41
		c0-0.32,0.02-0.64,0-0.96c-0.07-1.1-0.22-2.21-1.37-2.72c-1.14-0.5-2.28-0.25-3.29,0.44c-1.11,0.75-1.67,1.9-2.12,3.1
		c-1.07,2.8-1.6,5.74-2.16,8.67c-0.38,1.99-0.86,3.98-0.5,6.03c0.42,2.38,2.64,3.23,4.57,1.75c0.92-0.71,1.48-1.68,1.88-2.72
		C114.55,81.63,115.34,77.05,115.86,72.41z"/>
	<path class="st0" d="M20.8,78.41c-0.63,2.94-1.26,5.81-1.87,8.69c-0.57,2.69-1.14,5.38-1.7,8.07c-0.1,0.47-0.13,0.92-0.83,0.91
		c-3.27-0.03-6.54-0.01-9.92-0.01c0.03-1.41,0.45-2.7,0.73-3.99c2.83-13.37,5.7-26.72,8.52-40.09c0.17-0.82,0.48-1,1.25-1
		c5.43,0.03,10.87,0.02,16.3,0.01c1.37,0,2.71,0.21,4.01,0.62c4.1,1.28,6.23,4.6,5.97,9.63c-0.22,4.39-1.43,8.5-4.36,11.9
		c-3.31,3.84-7.74,5.15-12.63,5.25C24.46,78.45,22.67,78.41,20.8,78.41z M24.94,58.87c-0.83,3.92-1.65,7.75-2.48,11.66
		c1.59,0.11,3.06,0.14,4.51-0.13c1.47-0.27,2.68-1.04,3.48-2.32c1.17-1.84,1.64-3.88,1.48-6.03c-0.13-1.79-1.16-2.81-2.94-3.09
		C27.7,58.76,26.38,58.82,24.94,58.87z"/>
	<path class="st0" d="M231.94,96.03c-3.4,0-6.71,0-10.22,0c0.37-1.76,0.72-3.46,1.08-5.14c1.99-9.35,3.99-18.7,5.96-28.05
		c0.13-0.62,0.25-0.99,1.02-0.98c2.99,0.04,5.98,0.02,9.08,0.02c-0.25,1.27-0.48,2.45-0.78,3.98c1.95-2.48,4.12-4,6.89-4.61
		c1.66-0.36,3.34-0.37,4.99-0.02c3.47,0.73,5.13,3.19,4.67,6.91c-0.48,3.88-1.51,7.66-2.3,11.48c-1.09,5.27-2.23,10.52-3.35,15.78
		c-0.04,0.19-0.1,0.37-0.16,0.61c-3.38,0-6.72,0-10.23,0c0.38-1.86,0.75-3.67,1.13-5.48c1.26-5.96,2.53-11.92,3.8-17.88
		c0.27-1.29,0.41-2.59-0.88-3.45c-1.03-0.69-2.77-0.3-3.95,0.8c-1.13,1.05-1.65,2.41-1.97,3.88c-1.52,7.17-3.04,14.34-4.57,21.51
		C232.1,95.57,232.03,95.75,231.94,96.03z"/>
	<path class="st0" d="M143.91,61.92c-1.01,4.79-2,9.46-2.99,14.14c-0.65,3.08-1.33,6.16-1.98,9.24c-0.36,1.7-0.02,2.93,0.92,3.46
		c1.04,0.58,2.74,0.24,3.87-0.79c1.22-1.1,1.74-2.54,2.07-4.09c1.55-7.29,3.1-14.58,4.66-21.93c3.4,0,6.78,0,10.3,0
		c-2.42,11.39-4.83,22.72-7.25,34.08c-3.31,0-6.53,0-9.88,0c0.21-1.12,0.42-2.19,0.62-3.28c-0.56-0.11-0.66,0.32-0.88,0.55
		c-3.25,3.37-7.2,4.28-11.63,3.17c-2.51-0.63-3.83-2.58-3.92-5.37c-0.08-2.55,0.67-4.97,1.19-7.42c1.45-6.94,2.93-13.88,4.4-20.82
		c0.07-0.31,0.17-0.6,0.27-0.94C137.05,61.92,140.4,61.92,143.91,61.92z"/>
	<path class="st0" d="M75.47,96.87c-0.8,0-2.03-0.03-3.26-0.24c-4.91-0.83-7.51-3.4-7.54-8.34c-0.04-7.01,1.37-13.8,4.87-19.97
		c2.92-5.13,7.67-7.2,13.4-7.32c2.2-0.05,4.38,0.09,6.5,0.77c3.4,1.1,5.31,3.49,5.45,6.95c0.3,7.26-1.17,14.22-4.66,20.61
		C87.18,94.92,82.08,97,75.47,96.87z M74.92,86.32c0,0.2-0.01,0.4,0,0.6c0.08,1.3,0.17,2.61,1.67,3.13
		c1.36,0.47,2.93-0.13,3.89-1.43c0.57-0.78,0.97-1.65,1.28-2.55c1.24-3.67,2-7.45,2.65-11.26c0.29-1.68,0.66-3.37,0.29-5.1
		c-0.31-1.46-1.05-2.03-2.53-1.97c-2.07,0.08-3.11,1.48-3.81,3.16C76.31,75.83,75.45,81.05,74.92,86.32z"/>
	<path class="st0" d="M296.14,96.87c-1.68,0.06-3.57-0.13-5.43-0.71c-3.39-1.07-5.24-3.41-5.53-6.89
		c-0.48-5.59,0.92-10.91,2.59-16.17c0.76-2.41,1.88-4.65,3.47-6.63c3.11-3.87,7.31-5.34,12.12-5.47c2.04-0.05,4.07,0.06,6.05,0.61
		c3.64,1.02,5.84,3.56,5.97,7.32c0.23,6.85-1.19,13.41-4.21,19.54C308.19,94.53,302.99,97.02,296.14,96.87z M295.37,86.38
		c0,0.16,0,0.32,0,0.48c0.04,1.88,0.58,2.89,1.72,3.22c1.44,0.41,2.98-0.21,3.94-1.6c0.52-0.76,0.9-1.59,1.19-2.46
		c1.23-3.63,1.98-7.37,2.62-11.14c0.3-1.72,0.68-3.45,0.29-5.21c-0.32-1.4-1.02-1.96-2.45-1.93c-2.07,0.05-3.14,1.42-3.85,3.1
		C296.76,75.81,295.9,81.06,295.37,86.38z"/>
	<path class="st0" d="M217.25,96.04c-3.27,0-6.46,0-9.71,0c-0.49-1.12,0.07-2.27-0.07-3.41c-0.36-0.12-0.42,0.25-0.58,0.42
		c-2.85,3.19-6.44,4.33-10.58,3.68c-3.28-0.51-5.04-2.62-5.12-5.93c-0.07-3,0.54-5.86,1.99-8.52c1.46-2.69,3.64-4.47,6.57-5.39
		c2.78-0.87,5.66-1.37,8.46-2.13c2.63-0.71,3.43-1.63,3.76-4.28c0.2-1.59-0.53-2.53-2.12-2.7c-2.04-0.22-3.49,0.55-4.37,2.4
		c-0.32,0.68-0.54,1.4-0.83,2.16c-2.94,0-5.93,0-9.06,0c0.97-4.3,2.78-7.95,7.02-9.77c4.76-2.05,9.72-2.09,14.66-0.81
		c3.3,0.86,4.85,3.41,4.46,6.82c-0.52,4.52-1.78,8.9-2.64,13.36c-0.69,3.56-1.63,7.06-2.13,10.66
		C216.8,93.76,216.87,94.88,217.25,96.04z M210.11,79.35c-1.6,0.6-3.04,1.15-4.5,1.68c-2.87,1.04-4.49,3.78-4,6.8
		c0.23,1.45,1.15,2.13,2.61,1.95c2.39-0.31,3.79-1.75,4.4-3.97C209.2,83.71,209.61,81.57,210.11,79.35z"/>
	<path class="st0" d="M284.7,74.72c-3.18,0-6.29,0-9.44,0c0.15-1.36,0.44-2.65,0.37-3.98c-0.06-1.12-0.2-2.2-1.37-2.71
		c-1.27-0.55-2.5-0.38-3.58,0.51c-0.86,0.7-1.43,1.63-1.8,2.64c-1.83,4.92-2.88,10.02-3.37,15.24c-0.01,0.12-0.03,0.24-0.03,0.36
		c0,1.87,0.53,2.91,1.65,3.27c1.51,0.48,3.27-0.14,4.23-1.52c0.93-1.33,1.35-2.88,1.78-4.41c0.58-2.03,0.55-2.04,2.71-2.04
		c2.38,0,4.77,0,7.15,0c-0.19,7.65-6.49,14.24-14.04,14.72c-2.35,0.15-4.71,0.23-7.03-0.38c-3.91-1.03-6.18-3.22-6.39-7.23
		c-0.39-7.49,0.97-14.73,4.81-21.27c2.89-4.92,7.61-6.8,13.13-6.94c2-0.05,3.99,0.07,5.94,0.61c3.58,0.99,5.45,3.19,5.81,6.87
		c0.08,0.87,0.06,1.75,0.02,2.63C285.19,72.3,285.04,73.48,284.7,74.72z"/>
	<path class="st0" d="M47.69,61.91c3.34,0,6.53,0,9.8,0c0.02,1.46-0.67,2.77-0.68,4.43c2.77-3.71,6.12-5.81,10.92-5.23
		c-0.68,3.23-1.35,6.39-2.03,9.61c-1.59-0.17-3.09-0.33-4.6-0.08c-3.43,0.57-5.47,2.47-6.22,5.9c-0.7,3.23-1.4,6.46-2.09,9.7
		c-0.69,3.23-1.36,6.47-2.06,9.77c-3.4,0-6.78,0-10.3,0C42.86,84.63,45.27,73.31,47.69,61.91z"/>
	<path class="st0" d="M105.78,110.76c0.97-0.63,1.95-1.23,3.17-1.23c1.38-0.01,2.5,0.35,2.94,1.94c0.9-1.11,1.95-1.78,3.29-1.92
		c2.38-0.24,3.6,1.02,3.17,3.36c-0.43,2.35-0.97,4.68-1.46,7.02c-0.03,0.16-0.07,0.31-0.1,0.47c-0.66,3.17-0.66,3.17-4.11,2.82
		c0.54-2.53,1.07-5.05,1.61-7.57c0.15-0.7,0.33-1.4,0.4-2.11c0.12-1.11-0.47-1.55-1.54-1.22c-1,0.31-1.43,1.1-1.64,2.04
		c-0.58,2.61-1.12,5.22-1.69,7.83c-0.07,0.35-0.17,0.69-0.27,1.07c-1.11,0-2.17,0-3.43,0c0.39-1.91,0.77-3.76,1.16-5.61
		c0.25-1.21,0.56-2.41,0.79-3.62c0.11-0.6,0.34-1.32-0.44-1.68c-0.77-0.36-1.4,0-1.94,0.52c-0.57,0.55-0.73,1.31-0.89,2.05
		c-0.59,2.77-1.17,5.53-1.77,8.34c-1.15,0-2.26,0-3.5,0c0.57-2.75,1.14-5.46,1.71-8.18c0.3-1.44,0.65-2.88,0.91-4.33
		c0.12-0.7,0.42-0.95,1.11-0.88c0.59,0.05,1.2,0.04,1.8,0c0.6-0.04,0.66,0.27,0.55,0.73c-0.01,0.1-0.06,0.25-0.02,0.28
		C105.71,110.98,105.74,110.85,105.78,110.76z"/>
	<path class="st0" d="M11.09,116.37c-0.86,0-1.52,0-2.23,0c-0.05-0.99,0.24-1.81,0.49-2.68c1.89,0,3.76,0,5.81,0
		c-0.68,3.24-1.35,6.41-2.02,9.59c-0.87,0-1.67,0-2.45,0c-0.37-0.31-0.01-0.7-0.16-1.02c-0.16-0.11-0.29-0.02-0.4,0.09
		c-1.27,1.17-2.8,1.47-4.45,1.26c-1.83-0.23-2.96-1.31-3.01-3.14c-0.12-4.21,0.65-8.28,2.64-12.01c1.84-3.45,5.38-3.81,8.29-2.97
		c1.98,0.57,2.67,2.61,1.92,5.27c-1.07,0-2.16,0-3.28,0c-0.05-0.59-0.02-1.15-0.15-1.68c-0.28-1.17-1.24-1.57-2.31-1.01
		c-0.74,0.39-1.2,1.04-1.51,1.79c-1.18,2.78-1.75,5.71-1.91,8.71c-0.05,0.9-0.03,1.94,1.1,2.28c1.07,0.32,1.82-0.33,2.46-1.07
		C10.72,118.88,10.77,117.69,11.09,116.37z"/>
	<path class="st0" d="M39.71,122.43c-0.39,1.78-0.78,3.51-1.16,5.24c-1.16,0-2.23,0-3.48,0c1.27-5.97,2.51-11.86,3.76-17.74
		c1.15,0,2.18,0,3.26,0c0.02,0.29,0.04,0.55,0.06,0.9c0.23-0.15,0.4-0.24,0.55-0.36c0.88-0.72,1.89-1,3.01-0.92
		c1.39,0.1,2.2,0.76,2.52,2.13c0.52,2.27-0.14,4.43-0.67,6.59c-0.27,1.08-0.68,2.12-1.27,3.08
		C44.71,123.92,42.09,124.39,39.71,122.43z M44.85,114.25c-0.01-0.86,0.1-1.7-0.87-1.98c-0.85-0.24-1.54,0.2-1.91,0.9
		c-1.05,2.05-1.54,4.28-1.5,6.57c0.02,1.13,1.14,1.59,2.1,0.95c0.51-0.34,0.82-0.86,1.03-1.43
		C44.32,117.61,44.65,115.9,44.85,114.25z"/>
	<path class="st0" d="M71.63,116.24c-0.46,2.11-0.94,4.16-1.34,6.23c-0.12,0.63-0.33,0.9-0.99,0.86c-0.9-0.05-1.81-0.01-2.73-0.01
		c0.11-1.41,3.37-16.62,3.76-17.81c2.27,0,4.59-0.1,6.88,0.03c2.22,0.12,3.43,1.71,3.31,4.01c-0.22,4.15-2.86,6.66-7.04,6.7
		C72.88,116.25,72.29,116.24,71.63,116.24z M72.2,113.54c0.94,0.03,1.73,0.1,2.5-0.17c1.38-0.47,2.37-2.38,2.03-3.92
		c-0.22-0.98-1.11-1.36-2.76-1.26c-0.5,0.03-0.71,0.21-0.8,0.67C72.86,110.38,72.54,111.89,72.2,113.54z"/>
	<path class="st0" d="M33.79,123.27c-1.17,0-2.2,0-3.27,0c-0.01-0.31-0.03-0.58-0.04-0.92c-0.19,0.08-0.35,0.1-0.45,0.19
		c-0.96,0.81-2.06,1.18-3.31,1.13c-1.77-0.07-2.68-0.96-2.55-2.73c0.18-2.31,0.89-4.53,1.32-6.79c0.27-1.4,0.6-2.8,0.91-4.2
		c1.17,0,2.27,0,3.48,0c-0.64,3.03-1.26,5.98-1.88,8.93c-0.16,0.77-0.54,1.61,0.55,2.02c0.84,0.32,1.9-0.2,2.34-1.19
		c0.56-1.25,0.67-2.62,0.97-3.94c0.44-1.94,0.84-3.88,1.25-5.82c1.18,0,2.28,0,3.5,0C35.66,114.43,34.73,118.81,33.79,123.27z"/>
	<path class="st0" d="M165.67,123.26c-1.12,0-2.15,0-3.23,0c-0.09-0.31-0.19-0.64-0.33-1.09c-1.1,1.19-2.43,1.6-3.92,1.49
		c-1.24-0.09-2.02-0.76-2.26-1.93c-0.48-2.4,0.9-4.93,3.21-5.76c0.93-0.34,1.91-0.54,2.87-0.82c0.38-0.11,0.78-0.21,1.13-0.39
		c0.73-0.37,0.93-1.05,0.93-1.81c0-0.51-0.29-0.85-0.74-0.97c-0.75-0.19-1.4,0.04-1.96,0.6c-0.4,0.41-0.23,1.28-0.79,1.38
		c-0.88,0.16-1.82,0.04-2.73,0.04c-0.07-1.68,1.03-3.31,2.7-3.98c1.69-0.68,3.44-0.7,5.17-0.22c1.39,0.38,2.02,1.4,1.74,2.97
		c-0.46,2.63-1.04,5.23-1.59,7.84C165.7,121.46,165.58,122.28,165.67,123.26z M163.32,116.81c-0.89,0.29-1.7,0.51-2.47,0.82
		c-1.02,0.42-1.65,1.66-1.48,2.74c0.09,0.54,0.36,0.86,0.93,0.9c0.98,0.07,2.19-0.82,2.48-1.91
		C162.99,118.56,163.12,117.74,163.32,116.81z"/>
	<path class="st0" d="M60.41,114.13c-0.13,1.69-0.53,3.79-1.42,5.78c-1.39,3.11-4.42,4.49-7.71,3.55c-1.25-0.36-2.03-1.17-2.15-2.43
		c-0.31-3.27,0.33-6.37,2.13-9.12c1.46-2.23,4.96-3.07,7.4-1.98C59.96,110.51,60.49,111.63,60.41,114.13z M56.94,113.9
		c-0.05-0.85,0.04-1.71-0.93-1.93c-0.9-0.21-1.57,0.28-1.94,1.05c-1.05,2.18-1.49,4.5-1.57,6.91c-0.02,0.56,0.2,1.02,0.74,1.25
		c0.52,0.22,1.02,0.09,1.46-0.25c0.45-0.35,0.75-0.81,0.96-1.34C56.4,117.73,56.75,115.79,56.94,113.9z"/>
	<path class="st0" d="M129.43,117.16c-1.96,0-3.91,0.03-5.86-0.01c-0.7-0.01-1.01,0.19-1.06,0.91c-0.05,0.59-0.25,1.17-0.19,1.77
		c0.06,0.58,0.21,1.13,0.81,1.36c0.59,0.23,1.09-0.04,1.53-0.41c0.15-0.13,0.35-0.27,0.39-0.44c0.56-2.2,2.29-1.51,3.74-1.58
		c-0.3,3.98-5.33,6.4-8.6,4.2c-0.83-0.56-1.21-1.37-1.25-2.33c-0.12-2.8,0.44-5.48,1.71-7.97c1.35-2.65,4.55-3.84,7.38-2.88
		c1.18,0.4,1.83,1.25,1.95,2.47C130.13,113.9,129.95,115.52,129.43,117.16z M126.56,115.01c0.36-2.3,0.18-2.95-0.83-3.08
		c-1.25-0.16-2.35,1.2-2.44,3.08C124.36,115.01,125.42,115.01,126.56,115.01z"/>
	<path class="st0" d="M99.54,114.04c-0.15,1.96-0.58,4.3-1.72,6.45c-1.45,2.73-4.83,3.99-7.7,2.89c-1.36-0.52-2.07-1.7-2-3.6
		c0.09-2.24,0.53-4.43,1.45-6.49c1.32-2.96,4.05-4.33,7.26-3.67C98.81,110.02,99.59,111.16,99.54,114.04z M91.6,119.14
		c-0.01,0.97-0.01,1.73,0.82,2.04c0.78,0.29,1.46-0.04,1.85-0.7c1.31-2.25,1.8-4.75,1.76-7.31c-0.02-1.26-1.25-1.65-2.26-0.85
		c-0.38,0.3-0.63,0.71-0.81,1.16C92.17,115.36,91.88,117.36,91.6,119.14z"/>
	<path class="st0" d="M155.74,114.71c-1.01,0-2.04,0-3.07,0c-0.3-0.32-0.08-0.69-0.09-1.02c-0.03-0.6,0.06-1.28-0.68-1.5
		c-0.69-0.2-1.37-0.05-1.85,0.53c-0.27,0.33-0.51,0.72-0.66,1.13c-0.68,1.88-1.13,3.82-1.22,5.82c-0.03,0.67,0.06,1.32,0.83,1.54
		c0.74,0.21,1.33-0.11,1.77-0.7c0.19-0.25,0.43-0.54,0.46-0.83c0.14-1.59,1.15-1.74,2.42-1.58c0.39,0.05,0.79,0.01,1.18,0.01
		c0.12,1.93-1.26,4.14-3.11,4.97c-1.51,0.67-3.08,0.78-4.68,0.38c-1.26-0.31-2.07-1.11-2.19-2.39c-0.34-3.4,0.3-6.61,2.35-9.4
		c1.42-1.93,4.49-2.7,6.72-1.87C155.67,110.47,156.3,112.15,155.74,114.71z"/>
	<path class="st0" d="M129.9,123.32c0.96-4.51,1.89-8.9,2.84-13.37c1.08-0.1,2.13-0.1,3.23,0c0,0.4,0,0.75,0,1.28
		c1.1-1.03,2.2-1.93,3.86-1.63c0,1.12-0.41,2.14-0.59,3.29c-0.32,0-0.59,0-0.87,0c-1.94,0.03-2.94,0.85-3.34,2.73
		c-0.48,2.26-0.99,4.51-1.42,6.78c-0.13,0.68-0.35,0.98-1.07,0.93C131.72,123.28,130.88,123.32,129.9,123.32z"/>
	<path class="st0" d="M79.28,123.32c0.64-3.05,1.24-5.93,1.85-8.8c0.27-1.28,0.6-2.56,0.82-3.85c0.1-0.61,0.35-0.81,0.93-0.79
		c0.79,0.03,1.59,0.01,2.3,0.01c0.39,0.35-0.03,0.77,0.35,1.11c1.03-0.83,2.09-1.69,3.65-1.39c0.02,1.1-0.42,2.1-0.54,3.11
		c-0.11,0.06-0.17,0.13-0.24,0.14c-3.09,0.19-3.53,0.56-4.19,3.64c-0.43,1.98-0.86,3.97-1.24,5.96c-0.12,0.62-0.32,0.91-0.99,0.87
		C81.15,123.28,80.32,123.32,79.28,123.32z"/>
	<path class="st0" d="M21.36,109.89c-0.03,0.54-0.05,0.88-0.09,1.44c1.15-1.18,2.28-2.01,3.91-1.73c0,1.14-0.41,2.14-0.58,3.24
		c-0.3,0.02-0.57,0.05-0.85,0.05c-2,0.03-2.97,0.84-3.38,2.83c-0.48,2.26-0.99,4.51-1.42,6.78c-0.12,0.64-0.37,0.88-1.02,0.84
		c-0.83-0.05-1.67-0.01-2.66-0.01c0.44-2.11,0.84-4.12,1.27-6.13c0.45-2.1,0.96-4.19,1.35-6.31c0.15-0.81,0.46-1.08,1.25-1.01
		C19.84,109.93,20.55,109.89,21.36,109.89z"/>
	<path class="st0" d="M138.32,123.32c0.71-3.36,1.39-6.59,2.07-9.81c0.05-0.23,0.1-0.47,0.14-0.7c0.62-3.19,0.62-3.19,4.11-2.83
		c-0.25,1.2-0.5,2.4-0.75,3.59c-0.63,2.96-1.3,5.91-1.88,8.88c-0.14,0.72-0.42,0.92-1.09,0.89
		C140.1,123.28,139.27,123.32,138.32,123.32z"/>
	<path class="st0" d="M145.56,105.38c-0.02,0.96-0.35,1.86-0.55,2.85c-1.12,0-2.22,0-3.32,0
		C141.7,105.31,142.32,104.85,145.56,105.38z"/>
	<path class="st0" d="M340,122.82c-0.07,0.12-0.14,0.24-0.22,0.38c-0.24-0.23-0.13-0.38,0.04-0.53
		C339.88,122.72,339.94,122.77,340,122.82z"/>
</g>
</svg>
